solid BaseCube60
facet normal 0.0 0.0 -1.0
  outer loop
    vertex 60.0 60.0 0.0
    vertex 0.0 0.0 0.0
    vertex 0.0 60.0 0.0
  endloop
endfacet
facet normal 0.0 0.0 -1.0
  outer loop
    vertex 0.0 0.0 0.0
    vertex 60.0 60.0 0.0
    vertex 60.0 0.0 0.0
  endloop
endfacet
facet normal 1.0 0.0 0.0
  outer loop
    vertex 60.0 60.0 0.0
    vertex 60.0 0.0 59.99999999999999
    vertex 60.0 0.0 0.0
  endloop
endfacet
facet normal 1.0 0.0 0.0
  outer loop
    vertex 60.0 0.0 59.99999999999999
    vertex 60.0 60.0 0.0
    vertex 60.0 60.0 59.99999999999999
  endloop
endfacet
facet normal -0.0 -1.0 -0.0
  outer loop
    vertex 60.0 0.0 59.99999999999999
    vertex 0.0 0.0 0.0
    vertex 60.0 0.0 0.0
  endloop
endfacet
facet normal -0.0 -1.0 -0.0
  outer loop
    vertex 0.0 0.0 0.0
    vertex 60.0 0.0 59.99999999999999
    vertex 0.0 0.0 59.99999999999999
  endloop
endfacet
facet normal -1.0 0.0 0.0
  outer loop
    vertex 0.0 60.0 59.99999999999999
    vertex 0.0 0.0 0.0
    vertex 0.0 0.0 59.99999999999999
  endloop
endfacet
facet normal -1.0 0.0 0.0
  outer loop
    vertex 0.0 0.0 0.0
    vertex 0.0 60.0 59.99999999999999
    vertex 0.0 60.0 0.0
  endloop
endfacet
facet normal -0.0 1.0 0.0
  outer loop
    vertex 0.0 60.0 59.99999999999999
    vertex 60.0 60.0 0.0
    vertex 0.0 60.0 0.0
  endloop
endfacet
facet normal -0.0 1.0 0.0
  outer loop
    vertex 60.0 60.0 0.0
    vertex 0.0 60.0 59.99999999999999
    vertex 60.0 60.0 59.99999999999999
  endloop
endfacet
facet normal -0.0 -0.0 1.0
  outer loop
    vertex 58.400000000000006 1.6000000000000003 1.6000000000000003
    vertex 1.6000000000000003 58.400000000000006 1.6000000000000003
    vertex 1.6000000000000003 1.6000000000000003 1.6000000000000003
  endloop
endfacet
facet normal -0.0 -0.0 1.0
  outer loop
    vertex 1.6000000000000003 58.400000000000006 1.6000000000000003
    vertex 58.400000000000006 1.6000000000000003 1.6000000000000003
    vertex 58.400000000000006 58.400000000000006 1.6000000000000003
  endloop
endfacet
facet normal 0.0 0.0 1.0
  outer loop
    vertex 0.0 0.0 59.99999999999999
    vertex 1.6000000000000003 1.6000000000000003 59.99999999999999
    vertex 0.0 60.0 59.99999999999999
  endloop
endfacet
facet normal 0.0 0.0 1.0
  outer loop
    vertex 1.6000000000000003 1.6000000000000003 59.99999999999999
    vertex 0.0 0.0 59.99999999999999
    vertex 60.0 0.0 59.99999999999999
  endloop
endfacet
facet normal 0.0 0.0 1.0
  outer loop
    vertex 1.6000000000000003 1.6000000000000003 59.99999999999999
    vertex 60.0 0.0 59.99999999999999
    vertex 58.400000000000006 1.6000000000000003 59.99999999999999
  endloop
endfacet
facet normal 0.0 0.0 1.0
  outer loop
    vertex 58.400000000000006 1.6000000000000003 59.99999999999999
    vertex 60.0 0.0 59.99999999999999
    vertex 58.400000000000006 58.400000000000006 59.99999999999999
  endloop
endfacet
facet normal 0.0 0.0 1.0
  outer loop
    vertex 0.0 60.0 59.99999999999999
    vertex 1.6000000000000003 58.400000000000006 59.99999999999999
    vertex 60.0 60.0 59.99999999999999
  endloop
endfacet
facet normal 0.0 0.0 1.0
  outer loop
    vertex 1.6000000000000003 58.400000000000006 59.99999999999999
    vertex 0.0 60.0 59.99999999999999
    vertex 1.6000000000000003 1.6000000000000003 59.99999999999999
  endloop
endfacet
facet normal 0.0 0.0 1.0
  outer loop
    vertex 60.0 60.0 59.99999999999999
    vertex 1.6000000000000003 58.400000000000006 59.99999999999999
    vertex 58.400000000000006 58.400000000000006 59.99999999999999
  endloop
endfacet
facet normal 0.0 0.0 1.0
  outer loop
    vertex 60.0 60.0 59.99999999999999
    vertex 58.400000000000006 58.400000000000006 59.99999999999999
    vertex 60.0 0.0 59.99999999999999
  endloop
endfacet
facet normal 0.0 -1.0 0.0
  outer loop
    vertex 58.400000000000006 58.400000000000006 59.99999999999999
    vertex 1.6000000000000003 58.400000000000006 1.6000000000000003
    vertex 58.400000000000006 58.400000000000006 1.6000000000000003
  endloop
endfacet
facet normal 0.0 -1.0 0.0
  outer loop
    vertex 1.6000000000000003 58.400000000000006 1.6000000000000003
    vertex 58.400000000000006 58.400000000000006 59.99999999999999
    vertex 1.6000000000000003 58.400000000000006 59.99999999999999
  endloop
endfacet
facet normal -1.0 -0.0 -0.0
  outer loop
    vertex 58.400000000000006 58.400000000000006 59.99999999999999
    vertex 58.400000000000006 1.6000000000000003 1.6000000000000003
    vertex 58.400000000000006 1.6000000000000003 59.99999999999999
  endloop
endfacet
facet normal -1.0 -0.0 -0.0
  outer loop
    vertex 58.400000000000006 1.6000000000000003 1.6000000000000003
    vertex 58.400000000000006 58.400000000000006 59.99999999999999
    vertex 58.400000000000006 58.400000000000006 1.6000000000000003
  endloop
endfacet
facet normal 0.0 1.0 0.0
  outer loop
    vertex 1.6000000000000003 1.6000000000000003 59.99999999999999
    vertex 58.400000000000006 1.6000000000000003 1.6000000000000003
    vertex 1.6000000000000003 1.6000000000000003 1.6000000000000003
  endloop
endfacet
facet normal 0.0 1.0 0.0
  outer loop
    vertex 58.400000000000006 1.6000000000000003 1.6000000000000003
    vertex 1.6000000000000003 1.6000000000000003 59.99999999999999
    vertex 58.400000000000006 1.6000000000000003 59.99999999999999
  endloop
endfacet
facet normal 1.0 -0.0 0.0
  outer loop
    vertex 1.6000000000000003 58.400000000000006 1.6000000000000003
    vertex 1.6000000000000003 1.6000000000000003 59.99999999999999
    vertex 1.6000000000000003 1.6000000000000003 1.6000000000000003
  endloop
endfacet
facet normal 1.0 -0.0 0.0
  outer loop
    vertex 1.6000000000000003 1.6000000000000003 59.99999999999999
    vertex 1.6000000000000003 58.400000000000006 1.6000000000000003
    vertex 1.6000000000000003 58.400000000000006 59.99999999999999
  endloop
endfacet
endsolid BaseCube60
