<?xml version="1.0" encoding="UTF-8" standalone="no"?>
<!-- Created with Inkscape (http://www.inkscape.org/) -->

<svg
   xmlns:dc="http://purl.org/dc/elements/1.1/"
   xmlns:cc="http://creativecommons.org/ns#"
   xmlns:rdf="http://www.w3.org/1999/02/22-rdf-syntax-ns#"
   xmlns:svg="http://www.w3.org/2000/svg"
   xmlns="http://www.w3.org/2000/svg"
   xmlns:sodipodi="http://sodipodi.sourceforge.net/DTD/sodipodi-0.dtd"
   xmlns:inkscape="http://www.inkscape.org/namespaces/inkscape"
   version="1.1"
   id="svg3821"
   width="38.647812"
   height="42.184624"
   viewBox="0 0 38.647812 42.184623"
   sodipodi:docname="cubeLogo.svg"
   inkscape:version="0.92.2 5c3e80d, 2017-08-06">
  <metadata
     id="metadata3827">
    <rdf:RDF>
      <cc:Work
         rdf:about="">
        <dc:format>image/svg+xml</dc:format>
        <dc:type
           rdf:resource="http://purl.org/dc/dcmitype/StillImage" />
        <dc:title></dc:title>
      </cc:Work>
    </rdf:RDF>
  </metadata>
  <defs
     id="defs3825" />
  <sodipodi:namedview
     pagecolor="#ffffff"
     bordercolor="#666666"
     borderopacity="1"
     objecttolerance="10"
     gridtolerance="10"
     guidetolerance="10"
     inkscape:pageopacity="0"
     inkscape:pageshadow="2"
     inkscape:window-width="1273"
     inkscape:window-height="872"
     id="namedview3823"
     showgrid="false"
     fit-margin-top="0"
     fit-margin-left="0"
     fit-margin-right="0"
     fit-margin-bottom="0"
     inkscape:zoom="4.3816491"
     inkscape:cx="13.283679"
     inkscape:cy="41.397005"
     inkscape:window-x="0"
     inkscape:window-y="0"
     inkscape:window-maximized="0"
     inkscape:current-layer="svg3821" />
  <path
     style="fill:#000000;stroke-width:0.31999999"
     d="m 18.335277,41.86975 c -0.477047,-0.477046 -0.525917,-1.752774 -0.07775,-2.029753 0.201907,-0.124784 0.32,-3.764963 0.32,-9.863807 V 20.310155 L 10.307837,16.185096 C 5.7595102,13.916312 1.8744862,12.161186 1.6744512,12.284815 1.0863452,12.648283 0.01752316,11.87932 0.01752316,11.092741 c 0,-1.517261 1.56155804,-2.017273 2.38329904,-0.763139 0.262931,0.40128 1.762842,1.35935 3.333139,2.129043 l 2.855085,1.399443 5.0241508,-2.501036 5.024153,-2.501034 1.742999,0.854845 c 1.113152,0.545942 2.014374,0.786736 2.49399,0.666361 1.087939,-0.273056 1.964192,0.987732 1.33992,1.927933 -0.606544,0.913504 -1.843075,0.844912 -2.32871,-0.129177 -0.214983,-0.431213 -1.008896,-1.099312 -1.764253,-1.484666 l -1.373376,-0.700643 -4.480877,2.24471 -4.4808798,2.244714 4.7147738,2.36159 4.714775,2.36159 8.240905,-4.131628 c 4.860384,-2.436784 8.406103,-4.406477 8.643616,-4.801639 0.87121,-1.449465 3.133914,-0.275884 2.337437,1.212343 -0.376262,0.703056 -1.211033,1.090492 -1.699337,0.788704 -0.187792,-0.116061 -4.062797,1.645257 -8.611124,3.914041 l -8.269686,4.125059 v 9.620921 c 0,6.452351 0.113629,9.73455 0.345018,9.965938 0.18976,0.18976 0.29776,0.75856 0.24,1.264 -0.08089,0.707834 -0.289344,0.940525 -0.907264,1.012736 -0.441239,0.05156 -0.981239,-0.08524 -1.2,-0.304 z m -5.133754,-1.293753 c -0.2112,-0.2112 -0.392598,-0.5352 -0.403107,-0.72 -0.0105,-0.1848 -2.746509,-1.673056 -6.0799998,-3.307235 L 0.65752316,33.577527 v -7.764764 c 0,-5.153901 -0.116707,-7.881472 -0.347091,-8.111856 -0.935613,-0.935613 0.438169,-2.841734 1.54709104,-2.146592 0.667635,0.418519 0.914486,1.659197 0.427091,2.146592 -0.198521,0.198522 -0.347091,1.591658 -0.347091,3.254701 v 2.907609 l 3.519715,1.73664 3.519715,1.736643 1.5859138,-1.562064 c 0.87225,-0.859136 1.513718,-1.678873 1.425485,-1.821638 -0.364506,-0.589782 0.549849,-1.5528 1.474333,-1.5528 0.73991,0 0.986051,0.17295 1.144476,0.804157 0.227556,0.906656 -0.313417,1.759715 -1.108819,1.748499 -0.286451,-0.004 -1.337408,0.895961 -2.335465,2 l -1.8146438,2.007344 -3.705356,-1.838243 -3.705354,-1.838247 0.0019,3.758246 0.0019,3.758243 5.698938,2.812615 c 3.6919608,1.822105 5.8929628,2.738156 6.2498968,2.60119 0.591837,-0.227034 1.807325,0.651523 1.807325,1.306195 0,0.51295 -1.056576,1.44 -1.641197,1.44 -0.258941,0 -0.643603,-0.1728 -0.854803,-0.384 z m 10.24,0 c -0.966467,-0.966467 0.148173,-2.85144 1.401696,-2.370419 0.250624,0.09617 2.039373,-0.621223 3.974992,-1.594215 l 3.519312,-1.769075 v -4.754866 -4.754867 l -2.620986,-0.872868 c -1.441545,-0.480076 -3.117699,-0.887903 -3.72479,-0.906278 -1.317357,-0.03987 -2.003891,-0.845622 -1.459907,-1.713411 0.511686,-0.816262 1.743686,-0.896787 2.341955,-0.153075 0.27705,0.344403 1.907459,1.113737 3.62313,1.709632 l 3.119398,1.083443 6.4e-4,4.82695 6.4e-4,4.82695 1.43975,-0.66695 1.439748,-0.666951 2.52e-4,-7.375999 c 1.64e-4,-4.874819 -0.117449,-7.493699 -0.346841,-7.723091 -0.922269,-0.922269 0.436937,-2.844662 1.525705,-2.157885 1.016119,0.640951 1.240701,1.328442 0.647933,1.98344 -0.483737,0.534439 -0.546627,1.493751 -0.546627,8.337133 v 7.733199 l -6,3.011888 c -3.398842,1.706153 -6.174586,3.302224 -6.40271,3.6816 -0.446685,0.742841 -1.34361,0.875395 -1.93329,0.285715 z M 4.5615232,7.935999 C 3.6285212,7.002997 4.6485132,5.247884 5.9359452,5.57101 6.4168382,5.691705 8.6009252,4.830729 12.777209,2.874153 16.151373,1.293369 19.064281,0 19.250339,0 c 0.186054,0 3.14663,1.30686 6.579053,2.904137 3.432422,1.597273 6.455357,2.821792 6.717632,2.721145 0.739725,-0.283859 1.710499,0.398308 1.710499,1.201975 0,1.478169 -1.519414,2.012844 -2.350035,0.826969 C 31.651008,7.28805 28.703337,5.709641 25.357107,4.146649 L 19.273056,1.304847 13.405289,4.020687 C 9.9476572,5.62102 7.2697122,7.061724 6.8855042,7.528261 6.1844032,8.379593 5.1811362,8.555612 4.5615232,7.935999 Z"
     id="path3835"
     inkscape:connector-curvature="0"
     sodipodi:nodetypes="ccscscscsccccccsscccccscccscsccccccscssccscccccsccccccccscssccscsccccccsscccccssscscscsscssscssscscs" />
</svg>
